<svg xmlns="http://www.w3.org/2000/svg" width="2048" height="2048" viewBox="0 0 2048 2048">
  <defs>
    <style>
      .cls-1 {
        fill: #f4ced9;
        fill-rule: evenodd;
      }

      .cls-2 {
        font-size: 50px;
        font-family: "Bookman Old Style";
      }
    </style>
  </defs>
  <path id="形状_3" data-name="形状 3" class="cls-1" d="M1096.85,222.065c93.52-2.314,82.64,66.186,55.94,126.788-44.98,102.059-125.84,176.138-190.185,259.168,1.915,51.236,74.125,160.175,98.815,199.5,102.53,163.262,212.42,298.255,367.31,408.325,49.4,35.11,152.26,158.9,244.26,91.37,65-47.72-32.67-135.81-67.13-158.49-47.98-31.59-101.63-54.31-145.43-89.5-19.87-15.96-41.74-46.36-50.34-72.711q-4.665-18.643-9.32-37.291c-18.22-24.326-42.69-39.222-55.94-70.852-46.41-110.8-22.21-325.648,55.94-385.955,38.51,24.181,19.79,101.193,41.02,143.568,1.86-1.243,3.73-2.486,5.59-3.729,20.48-64.49,82.48-139.74,134.25-175.265q4.65,1.865,9.32,3.729c14.87,48.461,16.05,100.438,7.46,156.62h7.45c35.57-41.732,89.55-64,147.3-83.9q2.8,0.933,5.59,1.865c8.52,68.171-34.73,140.01-63.39,182.723-8.8,13.121-21.49,21.245-26.1,39.155h5.59c39.91-13.671,105.99-23.05,154.76-13.052l1.86,9.323c-87.95,108.309-209.63,198-404.6,197.639,8.79,44.186,52.02,86.4,89.5,102.547,125.45,54.08,240.52,40.01,313.24,151.03,89.53,136.68-24.19,297.37-169.67,298.32,3.04,15.51,11.37,32.02,7.45,48.48h-1.86q-66.18-27.975-132.38-55.94v7.46c5.93,15.33,16.04,42.36,13.05,57.8h-1.86c-55.47-16.37-82.94-80.23-124.93-111.87q-75.5-42.885-151.02-85.77c7.1,126.75-16.12,222.98-91.37,281.54C998.7,1783.49,672.539,1760.16,505.8,1627.91c-97.547-77.36-144.545-268.63-65.258-402.73,80.325-135.86,203.648-196.82,382.227-236.8,8.824-31.962,1.131-83.226-3.729-111.871h-1.865c-57.588,18.271-87.9-68.131-110.007-100.684-28.5-41.958-70.7-85.945-110.006-117.465C543.086,615,450.443,557.108,477.829,447.672c12.11-48.392,58.1-77.443,108.142-87.632,22.253-4.531,86.574-3.626,68.988,22.374-83.767-35.655-197.636,36.335-162.214,137.974C507.772,563.505,655.334,701.727,695.978,714.3c-0.859-82.807,46.661-104.7,68.987-158.485q11.187-53.133,22.375-106.277c9.167-52.017.972-133.464,35.426-160.349,25.377,5.985,25.315,53.4,31.7,78.31,17.338,67.68,30.148,133.385,61.53,186.452l27.967,31.7c23.71-7.794,41.737-42.449,57.8-59.665,47.61-51.021,169.24-181.476,145.43-275.949-52.45-36.835-95.97,7.758-128.65,33.561-2.76-4.6-3.37-6.279-3.73-14.916C1036.01,240.8,1062.83,238.263,1096.85,222.065ZM876.837,846.68L865.65,856c-0.771,48.23,9.651,89.8,18.645,132.381l52.206,5.594v-1.865C929.633,957.087,904.942,852.793,876.837,846.68Zm223.743,165.94c1.97,33.5,18.84,56.65,42.88,68.99h1.87C1140.62,1060.47,1115.84,1025.39,1100.58,1012.62Zm-190.182,179-7.458,1.86q-3.729,63.39-7.458,126.79L878.7,1387.39h1.865c33.883-17.1,112.923-127.56,78.31-186.45Q934.639,1196.275,910.4,1191.62Zm-113.736,9.32c-47.523,27.27-173.942,110.14-82.039,180.86,56.065-40.19,65.884-102.63,89.5-177.13Q800.392,1202.8,796.662,1200.94Z"/>
  <text id="Liyu" class="cls-2" transform="translate(161.903 1732.991) scale(8.394)">Liyu</text>
</svg>
