<svg xmlns="http://www.w3.org/2000/svg" width="2048" height="2048" viewBox="0 0 2048 2048">
  <defs>
    <style>
      .cls-1 {
        font-size: 83px;
        font-family: "Bookman Old Style";
      }

      .cls-2 {
        fill: #f4ced9;
        fill-rule: evenodd;
      }
    </style>
  </defs>
  <text id="LALA" class="cls-1" transform="translate(87.936 1619.544) scale(5.704)">LALA</text>
  <path id="形状_1" data-name="形状 1" class="cls-2" d="M1112,227c46.27-1.1,20.91,62.131,11,82-27.82,55.8-71.15,103.454-112,147l-33,27h2c4.6,2.53,13.152,3.785,16,2,40.33-18.576,70.08-40.3,121-53l53-8c18.68-3.036,33.58,3.327,49-3,21.24-8.717,91.84-43.985,122-27a412.179,412.179,0,0,1,27,82q2.505,32,5,64c14.42,6.806,22.74,24.551,30,39,37.03,73.667-10.53,154.807-58,190,0.33,1,.67,2,1,3,0.67,0.333,1.33.667,2,1l70-22c59.79-17.011,123.91-24.014,187-36l67-6c39.08-6.41,95.12-14.952,138-8l68,2c62.5,11.309,120.3,15.493,141,69,21.38,55.265-31.54,115.975-52,143-35.45,46.819-85.07,79.5-132,115-19.92,15.06-38.89,33.01-60,47-49.82,33.02-98.28,59.24-137,103,0.77,23.4,4.86,46.24,5,74,27.62,13.34,45.09,81.94,58,113,37.08,89.18,82.16,171.25,111,268,17.18,57.65,1.6,120.6-46,133-69.86,18.2-103.12-46.16-114-95-6-26.96-4.74-58.72-10-90-9.27-55.11-15.57-111.9-28-164-8.84-37.06-10.52-81.66-34-104-17.47-.21-33.86-3.89-48,0-36.45,10.02-57.63,34.11-105,42-33.45,5.57-59.6-9.36-83-11l-33,9c-9.83,1.91-16.46-.97-22,2,0.17,21.37,12.37,39.73,20,55,10.56,21.13,16.43,42.45,28,62,10.6,17.9,24.23,36.17,30,59,11.76,46.53-.57,97-39,106-50.11,11.73-82.54-70.4-99-99-29.32-50.94-63.41-205.45-49-285,4.13-22.81-3.05-44.1,1-65,6.07-31.28,18.21-60.28,28-86q0.495-24.495,1-49c4.86-29.89,3.17-65.295,0-94-36.74-5.181-99.74,25.168-127,39-11.49,5.83-25.63,28.6-39,26-2.75-14.72-15.56-12.66-28-17-1.13-7.53.06-11.977,2-18-5.06-1.374-8.24-4.376-11-8,7.44-24.249,55.55-56.793,76-71,8.66-6.015,18.74-8.524,24-18v-1c-40.4-2.989-78.28,18.568-115,31-109.458,37.063-250.629,96.35-395,55-22.384-6.411-44.269-10.73-61-23-81.292-59.619,18.015-209.645,45-262,10.324-20.029,27.144-35.381,40-53l59-80,44-45c83.612-105.245,198.42-191.186,317-261Q1076.49,241,1112,227ZM861,567c-48.134,21.2-108.391,33.08-153,60C651.17,661.3,605.242,723.1,576,785c-12.179,25.779-53.832,89.778-32,126,27.022,44.833,119.45,52.211,193,43l68-6c58.012-13.937,110.563-34.971,162-55,28.262-11,59.27-15.876,84-31q-3.495-4-7-8c-73.822,1-154.428-47.88-166-109-5.075-26.808,1.594-57.32,7-77,2.141-7.795,9.057-18.454,7-29l-21-44C867.774,586.463,867.271,572.637,861,567Zm954,169-101,3-148,19c-40.8,8.124-81.85,18.293-119,29-20.42,5.885-74.63,14.271-86,27,52.97-.713,186.16-1.632,208,25q-2.505,7.5-5,15c5.73,6.553,14.98,19.43,10,30l-21,8q-5.505,11-11,22-13.995-7-28-14c-30.78-8.547-76.7-1.839-108-1-3.55,22.648,27.63,55.633,43,68,20.86,16.787,41.1,36.1,63,52,32.87,23.87,75.01,43.96,91,84,66.02,1.36,100.73-31.15,139-58,66.08-46.36,126.34-94.548,182-151,18.21-18.472,74.89-69.923,62-111C1972.73,740.7,1871.73,735.828,1815,736Z"/>
</svg>
